<svg xmlns="http://www.w3.org/2000/svg" width="653" height="571"><path d="M369.537 22.941c-.345.558.851.708 2.941.369 2.29-.372 3.522-.176 3.522.559 0 .69 1.656 1.065 4.25.963l4.25-.168-3.75-.392c-2.062-.216-3.75-.816-3.75-1.332 0-1.226-6.706-1.225-7.463.001M242 25.5c0 .825.45 1.5 1 1.5s1-.675 1-1.5-.45-1.5-1-1.5-1 .675-1 1.5m4.813-.817c.721.289 1.584.253 1.916-.079.332-.332-.258-.568-1.312-.525-1.165.048-1.402.285-.604.604M266.158 26c0 1.375.227 1.938.504 1.25.278-.687.278-1.812 0-2.5-.277-.687-.504-.125-.504 1.25M268 26c0 1.1.173 2 .383 2 .211 0 .619-.9.907-2 .287-1.1.115-2-.384-2-.498 0-.906.9-.906 2m139.507-.989c.336.544 1.097.989 1.692.989.594 0 1.678.788 2.409 1.75.731.962 1.343 1.243 1.36.622.037-1.296-1.668-2.776-4.27-3.705-1.073-.384-1.555-.244-1.191.344m-17.739.714c1.797.222 4.497.218 6-.01 1.503-.229.032-.411-3.268-.405-3.3.005-4.529.192-2.732.415M368.086 27c-.031.825.381 2.175.914 3 1.181 1.828 1.181.249 0-2.5-.567-1.319-.878-1.489-.914-.5m33.676-.293c1.244.239 3.044.23 4-.02s-.062-.446-2.262-.435c-2.2.011-2.982.216-1.738.455M270.5 29c-.34.55-.141 1 .441 1S272 29.55 272 29s-.198-1-.441-1-.719.45-1.059 1m142.571 1.5c0 .55.643 2.125 1.429 3.5s1.429 2.05 1.429 1.5c0-.55-.643-2.125-1.429-3.5s-1.429-2.05-1.429-1.5m-131.258 2.183c.721.289 1.584.253 1.916-.079.332-.332-.258-.568-1.312-.525-1.165.048-1.402.285-.604.604M416.375 38c.878 3.247 3.898 10.06 4.287 9.671.227-.227-.736-2.833-2.14-5.792-1.404-2.958-2.37-4.704-2.147-3.879M245.75 40.662c.688.278 1.813.278 2.5 0 .688-.277.125-.504-1.25-.504s-1.937.227-1.25.504m5.5.027c.963.252 2.537.252 3.5 0 .963-.251.175-.457-1.75-.457s-2.713.206-1.75.457m138 3c.962.252 2.538.252 3.5 0 .962-.251.175-.457-1.75-.457s-2.712.206-1.75.457M387 46.378c0 .208.681 2.008 1.513 4 1.392 3.329 1.846 3.622 5.623 3.622 3.146 0 3.878-.293 3.124-1.25-.541-.687-1.28-2.487-1.641-4-.581-2.429-1.121-2.75-4.638-2.75-2.19 0-3.981.17-3.981.378m2.459 1.689c-.363.586-.445 1.281-.183 1.543s.743-.218 1.069-1.067c.676-1.762.1-2.072-.886-.476m31.612 1.433c0 .55.643 2.125 1.429 3.5s1.429 2.05 1.429 1.5c0-.55-.643-2.125-1.429-3.5s-1.429-2.05-1.429-1.5m-49.319 3.249c-1.571.357-1.593.553-.216 1.929.842.843 1.273 2.347.957 3.343-.678 2.136.561 3.182 2.412 2.038.888-.549 1.089-1.81.625-3.923-.768-3.498-1.278-3.955-3.778-3.387M401 54c0 .55.477 1 1.059 1s.781-.45.441-1-.816-1-1.059-1-.441.45-.441 1m-34.663 3.477c-1.16.812-2.421 2.72-2.802 4.24-.381 1.519-1.156 3.049-1.721 3.398-.703.434-.703.836-.001 1.269.565.349 2.084-1.282 3.376-3.625 1.293-2.342 2.979-4.259 3.747-4.259.769 0 1.585-.562 1.814-1.25.567-1.7-1.839-1.577-4.413.227m11.742.106c.048 1.165.285 1.402.604.605.289-.722.253-1.585-.079-1.917-.332-.332-.568.258-.525 1.312m45.952-1.083c0 .55.436 1.675.969 2.5.533.825.969 1.05.969.5s-.436-1.675-.969-2.5c-.533-.825-.969-1.05-.969-.5m-45 4c0 .55.436 1.675.969 2.5.533.825.969 1.05.969.5s-.436-1.675-.969-2.5c-.533-.825-.969-1.05-.969-.5M375 62c-.793.49-1.217 1.116-.942 1.391.275.275 1.149.099 1.942-.391.793-.49 1.217-1.116.942-1.391-.275-.275-1.149-.099-1.942.391m52.031 1.5c0 .55.436 1.675.969 2.5.533.825.969 1.05.969.5s-.436-1.675-.969-2.5c-.533-.825-.969-1.05-.969-.5m-45.952 3.083c.048 1.165.285 1.402.604.605.289-.722.253-1.585-.079-1.917-.332-.332-.568.258-.525 1.312M260 67c-.901.582-1.025.975-.309.985.655.008 1.469-.435 1.809-.985.767-1.242.421-1.242-1.5 0m169.071 1.5c0 .55.643 2.125 1.429 3.5s1.429 2.05 1.429 1.5c0-.55-.643-2.125-1.429-3.5s-1.429-2.05-1.429-1.5M251 73.277c0 .191 1.463 1.418 3.25 2.726 2.011 1.472 2.71 1.714 1.832.634-1.331-1.64-5.082-4.12-5.082-3.36m5 .101c0 .207.788.995 1.75 1.75 1.586 1.243 1.621 1.208.378-.378-1.307-1.666-2.128-2.195-2.128-1.372m119.036 1.078c-1.448 1.746-.77 3.119 1.884 3.813 1.157.302 2.176-.076 2.504-.931.304-.793.15-1.193-.342-.889-.493.305-.66-.347-.372-1.448.626-2.395-1.835-2.76-3.674-.545m5.56 2.794c-.342 1.237-3.051 4.05-6.02 6.25-5.535 4.101-7.064 6.408-1.729 2.609 1.629-1.16 3.455-2.109 4.057-2.109.603 0 .983-.338.846-.75s.762-1.763 2-3S382 77.325 382 76.5c0-2.199-.692-1.829-1.404.75m51.435-1.75c0 .55.436 1.675.969 2.5.533.825.969 1.05.969.5s-.436-1.675-.969-2.5c-.533-.825-.969-1.05-.969-.5M429 79c-.825.533-1.05.969-.5.969s1.675-.436 2.5-.969c.825-.533 1.05-.969.5-.969s-1.675.436-2.5.969m-170.374 3.244c.922 1.783 2.02 4.371 2.44 5.75.513 1.686.79 1.921.848.716.087-1.82-3.537-9.71-4.46-9.71-.278 0 .249 1.46 1.172 3.244m22.815-2.148c-.373.602-2.168.921-3.989.709-1.821-.213-3.092-.031-2.823.404.843 1.364 6.068.861 7.371-.709.685-.825.991-1.5.681-1.5-.309 0-.868.493-1.24 1.096m152.29 1.824c-.435 1.663-.305 2.054.437 1.312.582-.582.86-1.647.62-2.369-.25-.749-.703-.295-1.057 1.057m-38.918 1.763c.721.289 1.584.253 1.916-.079.332-.332-.258-.568-1.312-.525-1.165.048-1.402.285-.604.604m26.456.01c.973.254 2.323.237 3-.037.677-.274-.119-.481-1.769-.461-1.65.02-2.204.244-1.231.498m-6 1c.973.254 2.323.237 3-.037.677-.274-.119-.481-1.769-.461-1.65.02-2.204.244-1.231.498m85.515.045c2.905.203 7.405.201 10-.004 2.594-.206.216-.371-5.284-.369-5.5.003-7.622.171-4.716.373m-91.034.924c.688.278 1.813.278 2.5 0 .688-.277.125-.504-1.25-.504s-1.937.227-1.25.504m78.257.931C482.251 89.089 480 91.83 480 96.341c0 2.196.27 3.722.6 3.392.33-.33.6-2.176.6-4.102 0-4.193 1.815-6.051 8.439-8.639 2.674-1.044 4.186-1.902 3.361-1.906-.825-.004-3.072.674-4.993 1.507m28.806-.91c.721.289 1.584.253 1.916-.079.332-.332-.258-.568-1.312-.525-1.165.048-1.402.285-.604.604m-113.063.979c.688.278 1.813.278 2.5 0 .688-.277.125-.504-1.25-.504s-1.937.227-1.25.504m119.75 1.634c3.63 2.053 4.018 2.663 4.193 6.593.106 2.382.472 4.61.814 4.951.342.342.48-1.605.307-4.326-.276-4.354-.722-5.222-3.712-7.231-1.869-1.256-3.894-2.276-4.5-2.267-.606.009.698 1.035 2.898 2.28m-124.687-.613c.721.289 1.584.253 1.916-.079.332-.332-.258-.568-1.312-.525-1.165.048-1.402.285-.604.604m-22.063.979c.688.278 1.813.278 2.5 0 .688-.277.125-.504-1.25-.504s-1.937.227-1.25.504M366.5 90c.34.55.816 1 1.059 1s.441-.45.441-1-.477-1-1.059-1-.781.45-.441 1m4.25-.338c.688.278 1.813.278 2.5 0 .688-.277.125-.504-1.25-.504s-1.937.227-1.25.504M484 96.954c.825.559 2.363 1.022 3.417 1.031 2.558.02 1.76-.552-1.917-1.375-2.191-.49-2.595-.397-1.5.344M522 97c-2.06.66-2.148.816-.5.885 1.1.046 2.675-.352 3.5-.885 1.752-1.132.536-1.132-3 0m-30.238 1.707c1.244.239 3.044.23 4-.02s-.062-.446-2.262-.435c-2.2.011-2.982.216-1.738.455m22 0c1.244.239 3.044.23 4-.02s-.062-.446-2.262-.435c-2.2.011-2.982.216-1.738.455m-32.683 3.876c.048 1.165.285 1.402.604.605.289-.722.253-1.585-.079-1.917-.332-.332-.568.258-.525 1.312m46 0c.048 1.165.285 1.402.604.605.289-.722.253-1.585-.079-1.917-.332-.332-.568.258-.525 1.312m-45 4c.048 1.165.285 1.402.604.605.289-.722.253-1.585-.079-1.917-.332-.332-.568.258-.525 1.312m44 0c.048 1.165.285 1.402.604.605.289-.722.253-1.585-.079-1.917-.332-.332-.568.258-.525 1.312M483 109.878c0 .617.477 1.122 1.059 1.122s.806.409.497.91c-.928 1.501.541 4.092 2.301 4.06 1.457-.027 1.445-.146-.107-1.05-2.683-1.563-2.079-3.023 1-2.416 2.72.536 2.723.53.304-.521-1.346-.585-3.033-1.551-3.75-2.146-.94-.78-1.304-.769-1.304.041M522 111c-.901.582-1.025.975-.309.985.655.008 1.469-.435 1.809-.985.767-1.242.421-1.242-1.5 0m-7.5 2c-2.722.693-2.768.768-.5.811 1.375.027 3.4-.338 4.5-.811 2.466-1.06.164-1.06-4 0m7 1.233c-2.478 1.62-2.609 1.873-.75 1.457 1.31-.293 2.276-.02 2.313.654.035.636.495.078 1.022-1.239 1.249-3.124.994-3.21-2.585-.872m-29.231-.54c.973.254 2.323.237 3-.037.677-.274-.119-.481-1.769-.461-1.65.02-2.204.244-1.231.498m8.995 1.025c1.52.229 3.77.223 5-.014 1.23-.237-.014-.425-2.764-.418-2.75.008-3.756.202-2.236.432m-11.451 1.965c.721.289 1.584.253 1.916-.079.332-.332-.258-.568-1.312-.525-1.165.048-1.402.285-.604.604m25.202 1.067c.013 1.4.192 1.471.899.355.71-1.121.979-1.023 1.369.5.411 1.606.503 1.552.601-.355.071-1.385-.461-2.25-1.384-2.25-.825 0-1.493.787-1.485 1.75m-21.3.949c.408 1.063.802 1.251 1.052.5.652-1.955 2.061-1.369 2.527 1.051l.434 2.25.136-2.25c.206-3.414 1.955-2.689 2.413 1 .397 3.2.405 3.192.563-.5.159-3.73.139-3.75-3.809-3.75-3.323 0-3.862.276-3.316 1.699m12.952-1.032c-.367.366-.667 7.566-.667 16V149l2.75-.079c1.512-.043 2.188-.306 1.5-.583-.798-.322-1.314-2.917-1.427-7.171l-.176-6.667-.647 7c-.51 5.519-.684 3.773-.823-8.25-.105-9.064.207-15.25.771-15.25.521 0 1.113 2.362 1.315 5.25l.367 5.25.185-5.25c.194-5.516 1.81-7.205 2.392-2.5.334 2.694.352 2.684.894-.5.527-3.098.405-3.25-2.608-3.25-1.738 0-3.46.3-3.826.667M503.3 123c0 3.025.187 4.263.416 2.75.229-1.513.229-3.987 0-5.5s-.416-.275-.416 2.75m-322.105-1.5c.02 1.65.244 2.204.498 1.231.254-.973.237-2.323-.037-3-.274-.677-.481.119-.461 1.769m332.963 1.5c0 1.375.227 1.938.504 1.25.278-.687.278-1.812 0-2.5-.277-.687-.504-.125-.504 1.25m5.438 4.877c-.878 3.86-1.564 8.054-1.526 9.32.039 1.267.92-1.729 1.958-6.656 1.038-4.928 1.724-9.122 1.526-9.321-.199-.198-1.08 2.797-1.958 6.657m-24.517-4.294c.048 1.165.285 1.402.604.605.289-.722.253-1.585-.079-1.917-.332-.332-.568.258-.525 1.312m21 0c.048 1.165.285 1.402.604.605.289-.722.253-1.585-.079-1.917-.332-.332-.568.258-.525 1.312m-17.884 2.917c.02 1.65.244 2.204.498 1.231.254-.973.237-2.323-.037-3-.274-.677-.481.119-.461 1.769m13.077 2.5c0 2.475.195 3.488.434 2.25.238-1.238.238-3.263 0-4.5-.239-1.237-.434-.225-.434 2.25m-22.193-1.417c.048 1.165.285 1.402.604.605.289-.722.253-1.585-.079-1.917-.332-.332-.568.258-.525 1.312m7.079.417c0 1.375.227 1.938.504 1.25.278-.687.278-1.812 0-2.5-.277-.687-.504-.125-.504 1.25m5.114 2c0 2.475.195 3.488.434 2.25.238-1.238.238-3.262 0-4.5-.239-1.237-.434-.225-.434 2.25m11.886 0c0 1.375.227 1.938.504 1.25.278-.687.278-1.812 0-2.5-.277-.687-.504-.125-.504 1.25m-23.079 1.583c.048 1.165.285 1.402.604.605.289-.722.253-1.585-.079-1.917-.332-.332-.568.258-.525 1.312m9.153 2.417c0 1.925.206 2.713.457 1.75.252-.963.252-2.537 0-3.5-.251-.963-.457-.175-.457 1.75m-2.074 0c0 1.375.227 1.938.504 1.25.278-.687.278-1.812 0-2.5-.277-.687-.504-.125-.504 1.25m-6.079 1.583c.048 1.165.285 1.402.604.605.289-.722.253-1.585-.079-1.917-.332-.332-.568.258-.525 1.312M512.158 139c0 1.375.227 1.938.504 1.25.278-.687.278-1.812 0-2.5-.277-.687-.504-.125-.504 1.25m-19.596 2.5c.593 4.084 4.651 11.301 5.292 9.415.195-.573-.336-1.576-1.18-2.228-.844-.653-2.245-3.437-3.114-6.187-1.49-4.714-1.547-4.771-.998-1m9.71.5c0 2.475.195 3.488.434 2.25.238-1.238.238-3.262 0-4.5-.239-1.238-.434-.225-.434 2.25m2 0c0 2.475.195 3.488.434 2.25.238-1.238.238-3.262 0-4.5-.239-1.238-.434-.225-.434 2.25m6 0c0 2.475.195 3.488.434 2.25.238-1.238.238-3.262 0-4.5-.239-1.238-.434-.225-.434 2.25m-12.193-.417c.048 1.165.285 1.402.604.605.289-.722.253-1.585-.079-1.917-.332-.332-.568.258-.525 1.312m2.173 1.917c.011 2.2.216 2.982.455 1.738.239-1.244.23-3.044-.02-4s-.446.062-.435 2.262m16.908-1.309c-.088 1.48-.617 2.974-1.176 3.319-.559.346-.777 1.016-.484 1.49.293.474.075 1.144-.484 1.49-.559.345-.937 2.739-.841 5.319l.174 4.691.395-4.498c.218-2.474 1.071-5.245 1.896-6.157.931-1.029 1.345-2.927 1.09-5.001-.343-2.796-.436-2.903-.57-.653m-15.891 6.502c.973.254 2.323.237 3-.037.677-.274-.119-.481-1.769-.461-1.65.02-2.204.244-1.231.498m8.544 1.99c.721.289 1.584.253 1.916-.079.332-.332-.258-.568-1.312-.525-1.165.048-1.402.285-.604.604m-12.677 5.067c-.104 2.486.276 3.246 1.614 3.235 1.124-.01 1.339-.278.601-.75-.632-.404-1.358-1.86-1.614-3.235-.393-2.117-.486-2.002-.601.75m7.133-.057c.973.254 2.323.237 3-.037.677-.274-.119-.481-1.769-.461-1.65.02-2.204.244-1.231.498m-.519 1.969c.688.278 1.813.278 2.5 0 .688-.277.125-.504-1.25-.504s-1.937.227-1.25.504m6.985 1.153c.956.607.886 1.281-.307 2.984-2.005 2.863-6.069 2.841-9.364-.049l-2.564-2.25 2.424 2.75c3.2 3.63 6.9 3.587 10.451-.119 2.356-2.46 2.514-2.96 1.105-3.5-2.262-.868-3.24-.765-1.745.184m-7.985.891c1.238.238 3.262.238 4.5 0 1.238-.239.225-.434-2.25-.434s-3.488.195-2.25.434m1.5 1.983c.962.252 2.538.252 3.5 0 .962-.251.175-.457-1.75-.457s-2.712.206-1.75.457M322 179c0 .55.45 1 1 1s1-.45 1-1-.45-1-1-1-1 .45-1 1m-15 7c0 .55.675 1 1.5 1s1.5-.45 1.5-1-.675-1-1.5-1-1.5.45-1.5 1m8 0c0 .584 3.353 1 8.059 1 5.118 0 7.833-.365 7.441-1-.34-.55-3.966-1-8.059-1-4.294 0-7.441.423-7.441 1m-49.843 109.5l-.111 100.5 27.727.03c21.362.024 27.268.294 25.727 1.178-2.549 1.461-4.427 3.881-4.468 5.754-.018.804 1.25-.073 2.817-1.95 3.618-4.334 8.679-4.716 12.759-.962 2.66 2.447 2.662 2.447 1.462.144-.66-1.269-2.184-2.703-3.385-3.187-1.345-.542 8.106-.905 24.565-.944L379 396V195H265.268l-.111 100.5m284.593-77.969c-2.488 3.334-2.18 5.285.33 2.094 1.144-1.454 1.932-3.048 1.75-3.542-.181-.494-1.118.158-2.08 1.448m60.582-.953c-.333.867.07 2.252.895 3.077 1.333 1.333 1.565 1.33 2.085-.027.402-1.046.13-1.351-.863-.97-.877.337-1.449-.049-1.449-.978 0-.843.788-1.739 1.75-1.991 1.64-.428 1.638-.464-.031-.573-.98-.064-2.054.594-2.387 1.462m-44.063 5.115c.973.254 2.323.237 3-.037.677-.274-.119-.481-1.769-.461-1.65.02-2.204.244-1.231.498m18.481-.031c.688.278 1.813.278 2.5 0 .688-.277.125-.504-1.25-.504s-1.937.227-1.25.504M567 223.956c-11.502 1.319-20.03 4.889-19.985 8.367.009.688.418.554.985-.323.533-.825.976-1.113.985-.639.008.473.803-.039 1.765-1.138 2.401-2.741 7.116-4.12 17.912-5.24 16.198-1.679 38.514 1.575 41.667 6.076 1.235 1.764 1.503 1.82 2.038.426 1.862-4.852-26.978-9.639-45.367-7.529M536.5 231c.34.55.816 1 1.059 1s.441-.45.441-1-.477-1-1.059-1-.781.45-.441 1m5.5 4.569c0 .912 5.529 2.639 14.5 4.531 7.405 1.561 11.26 1.783 21.75 1.249 14.463-.735 17.473-2.546 3.772-2.269-4.938.1-8.736.573-8.441 1.051 1.35 2.184-18.484-.421-27.545-3.618-2.22-.784-4.036-1.208-4.036-.944m14.946 1.595c-1.206.855-1.176.939.182.508.896-.283 2.09-.054 2.654.51.7.7 1.61.657 2.872-.136 1.072-.675 1.218-.985.346-.739-.825.232-2.199.065-3.054-.372-.855-.438-2.205-.334-3 .229m56.554.926c-2.75 1.002-4.1 1.83-3 1.84 1.1.01 3.8-.834 6-1.875 5.016-2.374 3.561-2.357-3 .035m-48.5 1.035c0 1.112 2.091 1.104 3.857-.015.957-.607.589-.86-1.25-.86-1.434 0-2.607.394-2.607.875M598 241l-5.5.674 5 .045c2.75.024 6.35-.299 8-.719 2.626-.668 2.689-.758.5-.719-1.375.025-4.975.348-8 .719M82.079 254.583c.048 1.165.285 1.402.604.605.289-.722.253-1.585-.079-1.917-.332-.332-.568.258-.525 1.312m187.381.66c-.266.693-.366 19.26-.222 41.259l.262 39.998h104v-82l-51.778-.259c-40.925-.205-51.879.005-52.262 1.002m44.422.507c-.066.413-.045 1.149.045 1.637s-.689 1.838-1.733 3c-1.043 1.162-2.222 2.788-2.619 3.613-.398.825.288.207 1.524-1.373 6.702-8.569 18.775-5.74 21.878 5.125.589 2.061 1.357 8.208 1.708 13.659.474 7.375 1.072 10.346 2.339 11.613 1.604 1.604 1.733 1.103 2.229-8.601.614-12.031 2.572-17.171 7.247-19.019 2.271-.898 3.85-.908 6.5-.045 5.035 1.641 6.775 5.909 7.72 18.931.689 9.508.934 10.514 2.104 8.632 1.098-1.769 1.098-2.001 0-1.366-.777.448-.979.388-.491-.146.459-.5 1.359-.912 2-.915.642-.002 1.167-.974 1.167-2.159 0-1.186.335-2.493.744-2.906.944-.953 4.756 2.433 4.756 4.225 0 .74.413 1.345.918 1.345.518 0 .969-7.83 1.036-18l.119-18h-29.536c-16.245 0-29.59.338-29.655.75m9.671 10.165a1.116 1.116 0 00.362 1.532c.521.322 1.21.159 1.532-.362a1.116 1.116 0 00-.362-1.532 1.116 1.116 0 00-1.532.362m21.902 4.54c-2.91 2.909-3.168 6.59-.624 8.892 2.457 2.224 3.202 1.201 1.811-2.486-.989-2.619-.882-3.212.799-4.442 1.068-.78 2.219-1.419 2.559-1.419.34 0 1.491.639 2.559 1.419 1.681 1.23 1.788 1.823.799 4.442-1.391 3.687-.646 4.71 1.811 2.486 2.544-2.302 2.286-5.983-.624-8.892-3.114-3.115-5.976-3.115-9.09 0m-30.532 2.468c-3.73 3.73-3.909 8.182-.468 11.622 1.35 1.35 2.872 2.455 3.383 2.455 1.599 0 2.024-3.869.559-5.086-2.995-2.485-.902-6.914 3.268-6.914 3.371 0 4.894 3.498 2.869 6.589-1.097 1.674-1.316 2.977-.69 4.097.813 1.452 1.221 1.34 3.538-.977 3.608-3.608 3.495-7.986-.305-11.786-1.995-1.995-3.925-2.923-6.077-2.923s-4.082.928-6.077 2.923m-27.85.712c-2.595 3.298-2.619 5.493-.093 8.504 1.618 1.93 2.149 2.103 2.908.95.588-.894.526-2.054-.17-3.168-.82-1.315-.766-2.158.215-3.34 3.075-3.705 7.691-.412 5.143 3.669-.936 1.499-.958 2.263-.087 3.118.862.846 1.64.536 3.082-1.229 2.585-3.163 2.43-5.729-.526-8.684-3.34-3.341-7.763-3.265-10.472.18m19.179 9.865c.011 2.2.216 2.982.455 1.738.239-1.244.23-3.044-.02-4s-.446.062-.435 2.262m47.498.072c-1.512.821-2.75 1.703-2.75 1.96 0 1.161 2.995.287 5.139-1.499 2.789-2.323 1.502-2.572-2.389-.461m-55.083 1.095c-.367.366-.667 1.131-.667 1.7 0 .626.466.567 1.183-.15.651-.651.951-1.416.667-1.7-.284-.284-.817-.217-1.183.15m-23.709 2.883c-1.067 1.286-.978 1.84.52 3.25 1.705 1.605 1.769 1.596 1.147-.177-.363-1.032-.147-2.494.48-3.25.683-.822.739-1.373.14-1.373-.55 0-1.579.698-2.287 1.55M366 286.8c0 .44.54 1.34 1.2 2 .803.803.838 1.2.107 1.2-.601 0-1.356.685-1.678 1.523-.472 1.231-.216 1.326 1.338.495 2.759-1.477 3.38-2.895 1.997-4.562-1.31-1.577-2.964-1.944-2.964-.656m-37 2.17c0 .533-2.137 1.627-4.75 2.43-3.91 1.202-4.247 1.473-1.904 1.53 1.565.039 4.152-.702 5.75-1.646 2.893-1.708 3.806-3.284 1.904-3.284-.55 0-1 .436-1 .97m14.679-.147c-.924.178-1.679.93-1.679 1.671 0 1.018 1.957 1.348 8 1.348 6.247 0 8-.311 8-1.421 0-.782-.675-1.477-1.5-1.546-3.766-.314-11.302-.344-12.821-.052M297 295c0 3.778.367 5 1.5 5s1.5-1.222 1.5-5-.367-5-1.5-5-1.5 1.222-1.5 5m-11.361-3.306c-.351.352-.639 2.364-.639 4.473 0 2.74.428 3.833 1.5 3.833 1.08 0 1.5-1.105 1.5-3.941 0-3.798-1.028-5.698-2.361-4.365m5.861.306c.34.55.816 1 1.059 1s.441-.45.441-1-.477-1-1.059-1-.781.45-.441 1m50.98 2.032c-.388.628-.235 1.613.34 2.188 1.344 1.344 4.477.172 3.93-1.471-.556-1.671-3.386-2.147-4.27-.717M348 295c0 1.506.522 2.046 1.75 1.81.962-.186 1.75-1 1.75-1.81s-.788-1.624-1.75-1.81c-1.228-.236-1.75.304-1.75 1.81m5.48-.968c-.388.628-.235 1.613.34 2.188 1.344 1.344 4.477.172 3.93-1.471-.556-1.671-3.386-2.147-4.27-.717M291.5 295c-.34.55-.141 1 .441 1s1.059-.45 1.059-1-.198-1-.441-1-.719.45-1.059 1m19.5 1c0 .55.45 1 1 1s1-.45 1-1-.45-1-1-1-1 .45-1 1m17 0c0 .55.675 1 1.5 1s1.5-.45 1.5-1-.675-1-1.5-1-1.5.45-1.5 1m-36.5 3c.34.55.816 1 1.059 1s.441-.45.441-1-.477-1-1.059-1-.781.45-.441 1m50.5 4.13c0 4.249.268 4.961 1.75 4.655.962-.199 1.688-1.132 1.611-2.073-.076-.942.261-1.712.75-1.712s.889.9.889 2c0 1.142.667 2 1.555 2 1.229 0 1.491-.985 1.25-4.708-.303-4.671-.334-4.71-4.055-4.943l-3.75-.235v5.016m9-.213c0 3.931.352 5.083 1.555 5.083 1.228 0 1.491-.982 1.25-4.672-.435-6.672-2.805-7.019-2.805-.411m4 .083c0 3.778.367 5 1.5 5s1.5-1.222 1.5-5-.367-5-1.5-5-1.5 1.222-1.5 5m-60.768 2c0 1.925.206 2.712.457 1.75.252-.962.252-2.538 0-3.5-.251-.962-.457-.175-.457 1.75m4 0c0 1.925.206 2.712.457 1.75.252-.962.252-2.538 0-3.5-.251-.962-.457-.175-.457 1.75M311 303.059c0 .582.45.781 1 .441s1-.816 1-1.059-.45-.441-1-.441-1 .477-1 1.059m18-.059c0 .55.45 1 1 1s1-.45 1-1-.45-1-1-1-1 .45-1 1m-12 1c0 .55.477 1 1.059 1s.781-.45.441-1-.816-1-1.059-1-.441.45-.441 1m6 0c0 .55.45 1 1 1s1-.45 1-1-.45-1-1-1-1 .45-1 1m60.079.583c.048 1.165.285 1.402.604.605.289-.722.253-1.585-.079-1.917-.332-.332-.568.258-.525 1.312M290.158 306c0 1.375.227 1.938.504 1.25.278-.687.278-1.812 0-2.5-.277-.687-.504-.125-.504 1.25m129.437-.257l9.095.328 1.662 6.714c1.788 7.225 5.816 22.809 15.691 60.715 3.439 13.2 6.463 25.012 6.721 26.25l.469 2.25h32.111c26.4 0 33.511-.301 39.989-1.693 4.333-.931 8.091-2.25 8.353-2.93.261-.68-.202-2.731-1.028-4.557-.826-1.826-4.285-10.745-7.686-19.82-12.839-34.255-25.283-64.562-27.203-66.25-1.837-1.615-5.27-1.734-44.63-1.542-23.451.114-38.546.355-33.544.535M317 307c0 .55.45 1 1 1s1-.45 1-1-.45-1-1-1-1 .45-1 1m6 0c0 .55.45 1 1 1s1-.45 1-1-.45-1-1-1-1 .45-1 1m-148.333.667c-1.68 1.68-.325 3.116 3.416 3.617 6.203.832 6.766 2.085 1.415 3.15-2.428.483-2.617.409-.998-.391 1.673-.827 1.441-.952-1.423-.766-3.542.231-5.656 2.674-2.41 2.786 1.407.049 1.252.313-.667 1.136l-2.5 1.072 2.5.712 2.5.712-2.422.402c-1.332.222-2.569.853-2.749 1.403-.499 1.522 28.918 1.719 29.856.2.559-.904 1.025-.89 1.973.058.834.834 4.545 1.221 11.292 1.179 7.575-.048 9.449-.304 7.611-1.038-1.342-.536-3.817-.73-5.5-.432-2.324.412-2.577.33-1.05-.342 1.792-.787 7.155-.835 14.489-.129 2.38.229 2.356.277-.5 1.004-2.318.59-1.466.79 3.75.882 3.912.068 6.75-.302 6.75-.882 0-.55-.675-1-1.5-1s-1.5-.436-1.5-.969c0-.532.675-.709 1.5-.393.825.317 1.5.078 1.5-.531s.675-1.107 1.5-1.107c.933 0 1.5.944 1.5 2.5 0 2.469.105 2.5 8.418 2.5 4.63 0 9.13.273 10 .607 1.284.493 1.582-.166 1.582-3.5 0-2.984-.41-4.107-1.5-4.107-2.077 0-1.888-1.752.25-2.311.962-.251.175-.568-1.75-.705l-3.5-.247L260 312c1.925-.405 2.712-.796 1.75-.868-.962-.073-1.75-.549-1.75-1.059 0-.509.788-1.132 1.75-1.384.962-.251-2.637-.509-8-.573-9.122-.109-9.75.013-9.75 1.884 0 1.111-.667 2-1.5 2-.825 0-1.5-.614-1.5-1.364 0-1.691-4.853-2.34-19.5-2.606-6.05-.109-13.475-.332-16.5-.495-3.523-.189-4.781-.004-3.5.515 1.699.688 1.737.82.25.88-.963.038-1.75.52-1.75 1.07s-.675 1-1.5 1c-.833 0-1.5-.889-1.5-2 0-1.877-.667-2-10.833-2-5.959 0-11.134.3-11.5.667m-16.06 1.915c-.825 2.149-.775 2.418.452 2.418.582 0 .781-.45.441-1s.11-1 1-1 1.34-.45 1-1c-.912-1.476-2.203-1.217-2.893.582M168 309.5c0 .825.375 1.5.833 1.5.459 0 .834-.675.834-1.5s-.375-1.5-.834-1.5c-.458 0-.833.675-.833 1.5m10-.5c0 .55.675 1 1.5 1s1.5-.45 1.5-1-.675-1-1.5-1-1.5.45-1.5 1m13 0c0 .55.423 1 .941 1s1.219-.45 1.559-1c.34-.55-.084-1-.941-1s-1.559.45-1.559 1m120 .059c0 .582.45.781 1 .441s1-.816 1-1.059-.45-.441-1-.441-1 .477-1 1.059M164 310c-.825.533-1.05.969-.5.969s1.675-.436 2.5-.969c.825-.533 1.05-.969.5-.969s-1.675.436-2.5.969m53.5-.005c-1.701.768-1.551.883 1 .771 1.65-.073 4.575-.018 6.5.121 2.932.212 3.175.393 1.5 1.113-1.676.72-1.474.871 1.25.93 2.253.048 3.25-.39 3.25-1.43 0-1.064-1.089-1.504-3.75-1.514-2.062-.007-4.65-.211-5.75-.453-1.1-.242-2.9-.034-4 .462m15.313-.312c.721.289 1.584.253 1.916-.079.332-.332-.258-.568-1.312-.525-1.165.048-1.402.285-.604.604M248 310c0 .55.45 1 1 1s1-.45 1-1-.45-1-1-1-1 .45-1 1m69 .059c0 .582.45.781 1 .441s1-.816 1-1.059-.45-.441-1-.441-1 .477-1 1.059m6 0c0 .582.45.781 1 .441s1-.816 1-1.059-.45-.441-1-.441-1 .477-1 1.059m62.813-.376c.721.289 1.584.253 1.916-.079.332-.332-.258-.568-1.312-.525-1.165.048-1.402.285-.604.604M403 310c0 .55-.702 1-1.559 1-2.691 0-.462 1.994 2.368 2.118l2.691.119-3 .763c-2.844.724-2.87.775-.5.981l2.5.218-2.5.801c-1.822.583-.691.828 4.167.9 4.477.067 6.832-.31 7.171-1.15.403-1 .52-1 .583 0 .043.688 1.027 1.25 2.186 1.25 1.517 0 1.936-.446 1.496-1.593-.336-.876-.883-2.676-1.216-4-.565-2.251-1.049-2.407-7.495-2.407-3.928 0-6.892.43-6.892 1m61 1c-3.46.728-3.466.738-.5.853 1.65.064 3.675-.32 4.5-.853 1.665-1.076 1.112-1.076-4 0m6.75-.338c.688.278 1.813.278 2.5 0 .688-.277.125-.504-1.25-.504s-1.937.227-1.25.504m-285.937 1.021c.721.289 1.584.253 1.916-.079.332-.332-.258-.568-1.312-.525-1.165.048-1.402.285-.604.604m9 0c.721.289 1.584.253 1.916-.079.332-.332-.258-.568-1.312-.525-1.165.048-1.402.285-.604.604M383 315c0 3.098.383 4 1.7 4 1.322 0 1.433-.267.5-1.2-1.402-1.402-1.621-3.178-.29-2.356 1.412.873 3.757-.367 3.757-1.987 0-1.679-1.255-1.933-2.177-.441-.346.559-1.054.753-1.575.431a1.106 1.106 0 01-.372-1.516c.316-.512.098-.931-.484-.931S383 312.8 383 315m29.75-3.338c.688.278 1.813.278 2.5 0 .688-.277.125-.504-1.25-.504s-1.937.227-1.25.504M160 313.786c-2.734 1.838-4.112 3.435-3.496 4.051.217.217 1.88.778 3.695 1.246l3.301.851-3.721-.263c-2.047-.144-3.901.208-4.12.783-.237.623 1.301 1.055 3.805 1.068 2.312.011 4.272-.439 4.357-1 .718-4.754.567-5.998-.694-5.731-.873.185-1.157-.269-.781-1.25.709-1.848.777-1.855-2.346.245m6.813-1.103c.721.289 1.584.253 1.916-.079.332-.332-.258-.568-1.312-.525-1.165.048-1.402.285-.604.604m84 0c.721.289 1.584.253 1.916-.079.332-.332-.258-.568-1.312-.525-1.165.048-1.402.285-.604.604M209 314.008c1.925.401 2.617.788 1.539.86-1.45.098-1.01.617 1.687 1.992 2.966 1.512 4.622 1.707 8.838 1.041 7.459-1.179 7.235-1.857-.453-1.373-3.9.246-6.611.018-6.611-.556 0-.535.9-.972 2-.972s1.999-.337 1.998-.75c-.001-.413-2.814-.8-6.25-.86-4.966-.088-5.53.039-2.748.618m25.25.223c1.512.635 2.75 1.743 2.75 2.462 0 .719.675 1.307 1.5 1.307s1.5-.45 1.5-1 1.012-1.056 2.25-1.125c1.238-.069.45-.437-1.75-.817-2.2-.381-5.125-.983-6.5-1.338-2.196-.566-2.166-.504.25.511m227-.496c2.613.206 6.887.206 9.5 0 2.613-.206.475-.375-4.75-.375s-7.363.169-4.75.375m-270.437.948c.721.289 1.584.253 1.916-.079.332-.332-.258-.568-1.312-.525-1.165.048-1.402.285-.604.604m5.187-.3c0 .211.901.619 2.001.907 1.101.288 1.75.115 1.441-.383-.538-.871-3.442-1.313-3.442-.524m25.75.279c.688.278 1.813.278 2.5 0 .688-.277.125-.504-1.25-.504s-1.937.227-1.25.504m26.063.021c.721.289 1.584.253 1.916-.079.332-.332-.258-.568-1.312-.525-1.165.048-1.402.285-.604.604m74.187.286c0 .532.675.709 1.5.393.825-.317 1.5-.753 1.5-.969 0-.216-.675-.393-1.5-.393s-1.5.436-1.5.969m-120.45.91c1.315 1.217 8.471 3.434 9.089 2.816.277-.278-.878-.808-2.567-1.179-1.69-.371-3.072-1.089-3.072-1.595 0-.507-.99-.921-2.2-.921-1.319 0-1.819.352-1.25.879m258.178-.157c1.775.221 4.925.224 7 .008 2.074-.217.622-.397-3.228-.402-3.85-.004-5.548.173-3.772.394m13.085-.039c.721.289 1.584.253 1.916-.079.332-.332-.258-.568-1.312-.525-1.165.048-1.402.285-.604.604M159 317c-1.207.78-1.049.972.809.985 1.288.008 2.036-.427 1.691-.985-.743-1.202-.639-1.202-2.5 0m24.75-.338c.688.278 1.813.278 2.5 0 .688-.277.125-.504-1.25-.504s-1.937.227-1.25.504m9.063.021c.721.289 1.584.253 1.916-.079.332-.332-.258-.568-1.312-.525-1.165.048-1.402.285-.604.604M254 317c1.159.749.819.991-1.5 1.064-1.65.051-2.413.329-1.696.616.717.287 2.967.198 5-.198 3.135-.612 3.393-.844 1.696-1.531-1.1-.446-2.675-.835-3.5-.865-1.333-.049-1.333.052 0 .914m134 1c0 .55.45 1 1 1s1-.45 1-1-.45-1-1-1-1 .45-1 1m14 1.345c0 .819.563 1.715 1.25 1.993.839.338.87.53.094.583-.636.043-.951.867-.699 1.829.377 1.441 1.609 1.75 6.975 1.75 6.22 0 6.498-.103 6.087-2.25-.351-1.837.019-2.25 2.015-2.25 1.478 0 2.284-.482 2.038-1.219-.265-.795-3.422-1.341-9.083-1.572-7.175-.292-8.677-.095-8.677 1.136m63.269-.652c.973.254 2.323.237 3-.037.677-.274-.119-.481-1.769-.461-1.65.02-2.204.244-1.231.498m-285.019.996c.963.252 2.537.252 3.5 0 .963-.251.175-.457-1.75-.457s-2.713.206-1.75.457m8.75.478c0 1.019 4.78.974 7.45-.071 1.327-.519.448-.763-2.75-.763-2.585 0-4.7.375-4.7.834m19.813.516c.721.289 1.584.253 1.916-.079.332-.332-.258-.568-1.312-.525-1.165.048-1.402.285-.604.604M246.5 321c-.34.55.084 1 .941 1s1.559-.45 1.559-1-.423-1-.941-1-1.219.45-1.559 1m12.5-.107c0 .491.675 1.152 1.5 1.469.914.35 1.5.001 1.5-.893 0-.808-.675-1.469-1.5-1.469s-1.5.402-1.5.893m125.25-.226c-.887.354-1.246 3.454-1.235 10.666.009 5.889.37 9.609.857 8.84 1.355-2.138 6.055-.59 6.113 2.014.008.378-1.63.42-3.64.094-2.629-.426-3.455-.268-2.941.563.393.636 2.262 1.156 4.155 1.156 2.957 0 3.441-.335 3.441-2.378 0-1.308-1.012-3.133-2.25-4.056-1.588-1.184-1.735-1.524-.5-1.154 1.101.331 1.75-.01 1.75-.918 0-1.071-.775-1.289-3-.844-2.349.47-3 .247-3-1.025 0-.894.563-1.632 1.25-1.64.936-.012.915-.228-.084-.861-1.087-.689-1.059-.951.152-1.416.956-.367 1.684.191 2.044 1.568.9 3.44 1.941 1.153 1.221-2.684-.49-2.613-1.049-3.35-2.204-2.907-1.251.48-1.292.755-.213 1.439 1.022.647.924.849-.416.861-1.216.01-1.75-.768-1.75-2.552 0-2.076.367-2.451 1.918-1.959 1.433.455 1.853.17 1.662-1.129-.278-1.896-1.388-2.455-3.33-1.678m22.5 1.995c.688.278 1.813.278 2.5 0 .688-.277.125-.504-1.25-.504s-1.937.227-1.25.504m54.063 2.021c.721.289 1.584.253 1.916-.079.332-.332-.258-.568-1.312-.525-1.165.048-1.402.285-.604.604m4.937.023c1.238.238 3.262.238 4.5 0 1.238-.239.225-.434-2.25-.434s-3.488.195-2.25.434m11.063-.023c.721.289 1.584.253 1.916-.079.332-.332-.258-.568-1.312-.525-1.165.048-1.402.285-.604.604M459.5 327c-.34.55.282 1 1.382 1 1.1 0 2.278-.45 2.618-1 .34-.55-.282-1-1.382-1-1.1 0-2.278.45-2.618 1m-56 1c-.34.55.196 1.007 1.191 1.015 1.044.009 1.372.326.776.75-1.166.829-1.31 2.725-.286 3.749.375.375.439 1.313.143 2.084-.298.775.068 1.409.819 1.417 1.047.012 1.014.237-.143.985-1.244.804-1.159.975.5 1 1.664.025 1.748.196.5 1.015-1.248.82-1.271 1.133-.137 1.864 1.151.742 1.151.963 0 1.421-.863.343-.63.577.637.636 1.664.079 1.748.257.5 1.064-1.045.676.68.974 5.693.985 6.658.014 7.164-.134 6.807-1.985-.278-1.446.153-2 1.557-2 3.362 0 2.106-1.996-1.307-2.079-1.788-.043-2.713-.297-2.056-.565.656-.267.961-1.092.676-1.833-.29-.758.282-1.555 1.307-1.82 1.603-.414 1.578-.485-.209-.587-2.897-.165-3.186-4.695-.347-5.437 1.144-.3 1.783-1.025 1.421-1.612-.842-1.362-17.204-1.423-18.042-.067m67.5-.607c0 .216.675.652 1.5.969.825.316 1.5.139 1.5-.393 0-.533-.675-.969-1.5-.969s-1.5.177-1.5.393m-310.5 1.471c-2.2.4-4.9 1.286-6 1.969-1.733 1.077-1.399 1.185 2.5.813 2.475-.236 7.759-.951 11.743-1.588 8.038-1.287 24.417-.078 25.06 1.85.461 1.384 7.197 1.447 7.197.067 0-.563-1.238-1.531-2.75-2.149-3.191-1.305-31.847-2.036-37.75-.962m250.238.3c2.799.627 4.836.601 6-.077 1.337-.779.316-1.008-4.238-.949l-6 .076 4.238.95M215 330.427c0 .784.787 1.632 1.75 1.884 1.667.435 1.667.463 0 .573-2.846.189-1.994 2.104 1 2.248 2.474.118 2.398.205-.75.868-3.238.682-3.102.747 1.809.868 3.315.083 5.077-.244 4.691-.868-.838-1.356.829-1.271 2.213.113 1.767 1.767 3.287.068 3.287-3.672V329h-7c-5.396 0-7 .327-7 1.427m73.349.105c-.946 2.465.707 3.006 8.049 2.633 4.825-.245 6.602-.712 6.602-1.732 0-1.017-1.308-1.368-4.814-1.289-2.648.06-5.8-.204-7.005-.586-1.567-.498-2.373-.22-2.832.974m57.349-.896c-1.801 1.801-.525 3.297 2.71 3.175 2.406-.09 3.256-.522 2.893-1.47-.283-.737-.88-1.341-1.326-1.341-.446 0-1.434-.239-2.195-.531-.762-.292-1.698-.217-2.082.167m115.898.753c.479 1.249 2.054 1.611 7.011 1.611 3.595 0 6.393-.438 6.393-1 0-.55-2.438-1-5.418-1s-6.135-.275-7.012-.611c-1.166-.448-1.427-.18-.974 1m-212.096.507c-2.467.542-2.678.786-1.187 1.374.998.394 1.534 1.169 1.191 1.723-.892 1.444-3.552 1.245-3.254-.243.137-.687-.912-1.385-2.333-1.55-1.721-.2-2.584.18-2.584 1.139 0 1.977 13.256 4.148 16.89 2.766 4.121-1.566 4.24-3.014.381-4.626-3.766-1.573-4.41-1.615-9.104-.583m3.25.697c1.578.725 1.644 3.407.083 3.407-.641 0-.929.238-.638.528.29.29 1.788.049 3.329-.537 3.05-1.16 2.488-2.401-1.524-3.369-1.375-.332-1.937-.345-1.25-.029m-18.5 2.096c.963.252 2.537.252 3.5 0 .963-.251.175-.457-1.75-.457s-2.713.206-1.75.457m175.512.018c1.244.239 3.044.23 4-.02s-.062-.446-2.262-.435c-2.2.011-2.982.216-1.738.455M474 334c0 .55.702 1 1.559 1s1.281-.45.941-1c-.34-.55-1.041-1-1.559-1s-.941.45-.941 1m-316 1.865c-1.925.411-4.4 1.27-5.5 1.91-1.784 1.039-1.602 1.167 1.685 1.195 2.027.016 4.727-.356 6-.828 1.273-.472 4.669-1.161 7.546-1.532 4.456-.574 5.144-.447 4.643.858-.469 1.223.241 1.532 3.519 1.532 2.96 0 4.107-.413 4.107-1.481 0-1.184.951-1.36 4.75-.88 2.613.33 5.747 1.221 6.965 1.981 2.579 1.607 8.285 1.852 8.285.355 0-2.289-6.226-3.3-22-3.572-9.075-.156-18.075.052-20 .462M384.5 337c.34.55.816 1 1.059 1s.441-.45.441-1-.477-1-1.059-1-.781.45-.441 1m26.769 1.693c.973.254 2.323.237 3-.037.677-.274-.119-.481-1.769-.461-1.65.02-2.204.244-1.231.498m-197.696 3.067c-1.06 1.061-.585 2.09 1.177 2.551 1.493.39 1.456.484-.25.643l-2 .187 2 .859c1.71.735 1.746.87.25.93-.963.038-1.75.468-1.75.953 0 1.368 3.966 2.081 6.408 1.152 1.206-.459 3.408-.602 4.893-.318 1.629.312 2.699.073 2.699-.6 0-.615-.787-1.149-1.75-1.187-1.483-.06-1.445-.191.25-.862 1.534-.607.777-.962-3.25-1.524-6.919-.964-6.748-2.137.249-1.701 3.025.188 5.501-.06 5.501-.55 0-.972-13.49-1.47-14.427-.533M160 343.042c-7.048.844-12 2.401-12 3.773 0 6.161 51.687 6.624 53.735.481 1.354-4.063-22.791-6.524-41.735-4.254m88.5-.146c-2.467.542-2.678.786-1.187 1.374.998.394 1.534 1.169 1.191 1.723-.892 1.444-3.552 1.245-3.254-.243.137-.687-.912-1.385-2.333-1.55-1.721-.2-2.584.18-2.584 1.139 0 2.193 13.85 4.242 17.752 2.626 7.394-3.063-.27-7.116-9.585-5.069m-80.066.914c1.385.606 1.586 1.06.709 1.602-.717.443-.953 1.612-.57 2.819.549 1.728.313 1.972-1.458 1.509-1.162-.304-2.365-.144-2.673.354-.63 1.019 12.517 1.029 22.558.018l6.5-.655-8.379-.809c-11.365-1.096-14.048-2.132-7.909-3.053 2.678-.401 5.423-.268 6.47.314 2.514 1.397 11.327 3.025 12.968 2.395 2.21-.848 1.549-2.039-1.773-3.197-3.695-1.288-29.298-2.544-26.443-1.297m83.982.363c1.862 1.081 1.863 1.15.058 2.469-1.433 1.049-1.514 1.358-.356 1.358.825 0 2.373-.641 3.441-1.425 1.872-1.375 1.841-1.464-.874-2.5-3.609-1.378-4.728-1.33-2.269.098m-97.166.946c-4.267 1.232-4.113 2.549.444 3.807 4.289 1.184 3.951 1.337 4.833-2.178.764-3.044.213-3.214-5.277-1.629m78 .57c.963.252 2.537.252 3.5 0 .963-.251.175-.457-1.75-.457s-2.713.206-1.75.457M387 346c-2.291.734-2.207.808 1 .885 1.925.046 4.175-.352 5-.885 1.179-.762.966-.951-1-.885-1.375.046-3.625.445-5 .885m-.25 2.772c-2.794.598-2.022 1.901 1 1.687 1.512-.107 1.85.009.75.258-2.29.518-4.432 2.236-2.95 2.366 3.916.344 5.535.669 6.088 1.222.352.351-1.025.426-3.059.165-2.473-.316-3.48-.118-3.038.597.364.588 1.291.828 2.06.533.77-.296 1.399-.101 1.399.431 0 .533.675.969 1.5.969s1.5.378 1.5.839c0 .462-1.275.764-2.833.671-1.563-.093-2.834.346-2.834.979 0 .669 1.611 1.138 3.864 1.125l3.864-.023-.605-4.545c-.333-2.5-.759-5.046-.946-5.657-.406-1.324-3.317-2.141-5.76-1.617m23.697 5.143c.311.503.079 1.076-.516 1.275-.656.218-.813 1.433-.398 3.085.627 2.5 1.086 2.725 5.551 2.725 4.702 0 4.836-.08 3.968-2.363-.666-1.752-.475-2.785.739-4 1.517-1.516 1.211-1.637-4.136-1.637-3.235 0-5.524.402-5.208.915m-265.207 4.036L144.213 362h4.925c5.096 0 5.621-.43 6.1-5 .242-2.307-.094-2.523-4.354-2.799l-4.616-.3-1.028 4.05m17.573-2.268c.721.289 1.584.253 1.916-.079.332-.332-.258-.568-1.312-.525-1.165.048-1.402.285-.604.604m38.456.01c.973.254 2.323.237 3-.037.677-.274-.119-.481-1.769-.461-1.65.02-2.204.244-1.231.498m210.955.483c-1.748 1.748.509 4.29 2.409 2.714 1.9-1.577 1.712-2.96-.297-2.189-1.119.43-1.427.256-.941-.531.93-1.504.336-1.501-1.171.006m-243.037.687c-1.544.98 12.042 2.332 15.829 1.576 2.4-.479 2.408-.462.251.494-1.229.545-5.279.827-9 .628l-8.576-.462c-.995-.054-1.531-.549-1.191-1.099.357-.577-.57-.994-2.191-.985-2.181.012-2.474.232-1.309.985 1 .646 1.083.974.25.985a1.271 1.271 0 00-1.249 1.265c.001.949 4.034 1.257 16.75 1.28 9.212.016 18.774.338 21.249.715 3.051.464 3.695.403 2-.191l-2.5-.876 2.291-.716c1.26-.394 2.129-1.201 1.932-1.793-.695-2.085-6.969-2.824-15.14-1.783-5.087.648-9.751.691-12.583.116-5.606-1.14-5.246-1.132-6.813-.139m22.063.799c-2.32.937-1.271 2.338 1.75 2.338 2 0 3-.5 3-1.5 0-1.461-2.23-1.855-4.75-.838M383.165 378c-.335 19.946-.841 27.334-2.137 31.228-.531 1.593-.538 2.957-.017 3.279 2.217 1.37 3.078-7.806 2.769-29.507l-.32-22.5-.295 17.5m4.181-13c.162 2.171.722 2.539 4.254 2.799 3.982.293 4.059.237 3.638-2.628-.393-2.68-.753-2.917-4.254-2.799-3.433.115-3.806.384-3.638 2.628m25.82-1.938c-2.066.828-2.77 3.207-.891 3.013.399-.041 2.413-.143 4.475-.225l3.75-.15-4.5-.7-4.5-.7 5.75-.15c3.163-.082 5.75-.6 5.75-1.15 0-1.243-6.683-1.201-9.834.062M146 365.718c0 .705-.018 1.619-.039 2.032-.022.413 1.216 1.035 2.75 1.383 2.173.493 1.961.569-.961.345-2.527-.194-3.75.129-3.75.99 0 1.529 7.878 1.919 11.261.559 1.845-.742 1.916-.911.406-.964-2.546-.088-1.541-2.362 1.407-3.186 2.141-.598 2.015-.705-1.074-.909l-3.5-.231 3.5-.728c2.706-.563 1.969-.71-3.25-.651-4.784.055-6.75.451-6.75 1.36m242.003 4.532c-.002.413 1.599.75 3.556.75 2.249 0 3.318.39 2.905 1.059-.384.621-1.905.783-3.684.393-2.098-.461-2.82-.325-2.346.441.376.609 2.007 1.107 3.625 1.107 1.948 0 2.941.507 2.941 1.5 0 .825.502 1.5 1.117 1.5.67 0 .875-.9.513-2.25-.331-1.238-.609-2.947-.616-3.799-.01-1.146-1.054-1.536-4.011-1.5-2.198.027-3.998.386-4 .799m24.429 1c.231 1.238.453 2.785.494 3.438.041.653.862 1.139 1.824 1.078.962-.06 2.875.189 4.25.553 1.375.365 1.938.404 1.25.088-2.001-.918-1.441-2.69.675-2.137 1.346.352 1.766.089 1.396-.875-.29-.758.193-1.655 1.075-1.994.882-.338 1.604-.974 1.604-1.414 0-.439-1.121-.279-2.492.357s-2.496 1.549-2.5 2.028c-.004.48-.57.416-1.258-.142-.687-.558-1.925-1.23-2.75-1.493-.825-.263-.262-.323 1.25-.133s2.75-.093 2.75-.629-1.797-.975-3.994-.975c-3.599 0-3.952.222-3.574 2.25m-268.807 2.548c-.322.521 1.543 1.188 4.145 1.483 4.565.519 6.12.276 5.056-.788-1.034-1.034-8.637-1.608-9.201-.695m272.175.402c.933.933 1.467.933 2.4 0 .933-.933.667-1.2-1.2-1.2s-2.133.267-1.2 1.2M389 376c0 .55.45 1 1 1s1-.45 1-1-.45-1-1-1-1 .45-1 1m3.5 0c.34.55.816 1 1.059 1s.441-.45.441-1-.477-1-1.059-1-.781.45-.441 1m31.5.059c0 .582.45.781 1 .441s1-.816 1-1.059-.45-.441-1-.441-1 .477-1 1.059m57.75-.342c-3.251.492-3.238.398-.95 6.783l1.791 5 11.205.283c12.569.317 12.225.571 9.61-7.105L501.812 376l-6.156-.082c-3.386-.045-7.281-.203-8.656-.349-1.375-.147-3.738-.08-5.25.148m-339.985 3.733c-.362 1.892.01 2.544 1.633 2.864 1.999.393 1.992.42-.148.55-1.273.077-2.25.787-2.25 1.636 0 1.069 1.077 1.496 3.75 1.485 3.663-.015 6.506-1.068 6.335-2.347-.282-2.107.178-2.788 2.475-3.661 4.148-1.577 1.796-2.977-5.002-2.977-5.918 0-6.355.158-6.793 2.45m343.412-.2c.686 1.238 1.134 2.643.995 3.123-.14.48.476.592 1.369.25.892-.343 3.948-.684 6.791-.759 2.842-.075 4.156-.331 2.918-.57-1.238-.238-2.25-.852-2.25-1.364 0-.511-2.025-.93-4.5-.93s-4.5-.45-4.5-1-.466-1-1.035-1c-.651 0-.572.836.212 2.25m7.823-1.867c0 .211 1.111.596 2.47.856 1.358.26 2.232.087 1.941-.383-.512-.829-4.411-1.246-4.411-.473m-345.75 1.306c.963.252 2.537.252 3.5 0 .963-.251.175-.457-1.75-.457s-2.713.206-1.75.457M263.37 388c0 5.775.165 8.137.367 5.25.202-2.887.202-7.613 0-10.5-.202-2.887-.367-.525-.367 5.25m226.38-1.294c1.238.238 3.262.238 4.5 0 1.238-.239.225-.434-2.25-.434s-3.488.195-2.25.434M195 396.25c0 .815 1.567 1.25 4.5 1.25 4.832 0 5.904-.891 2.25-1.87-3.701-.991-6.75-.711-6.75.62m22-.521c.825.314 1.838 1.066 2.25 1.671.545.8.955.8 1.5 0 .412-.605 1.425-1.357 2.25-1.671.825-.314-.525-.571-3-.571s-3.825.257-3 .571m-11 1.216c0 .45 1.8.844 4 .874 2.2.031 4-.313 4-.764 0-.45-1.8-.844-4-.874-2.2-.031-4 .313-4 .764m56.622 3.858c-.9 1.455 1.092 10.902 2.478 11.759 1.122.693 1.099.313-.433-7.057-.786-3.777-1.542-5.516-2.045-4.702m63.439 12.298c-1.342.536-3.817.705-5.5.376-2.302-.45-2.689-.339-1.561.447 2.179 1.518 7.311 1.308 9.559-.392 2.211-1.673 1.093-1.865-2.498-.431m-59.031 2.311c.809 1.052 2.82 2.738 4.47 3.746l3 1.835-3 .019c-2.305.014-2.653.243-1.5.988.918.594 21.272.969 52.5.969s51.582-.375 52.5-.969c1.263-.817 1.207-.972-.361-.985-1.646-.013-1.589-.24.5-1.966l2.361-1.952-5 1.576c-4.215 1.329-12.067 1.596-50 1.702-41.36.115-45.263-.019-48.25-1.651-1.788-.976-3.25-1.46-3.25-1.075s-1.224-.391-2.72-1.725c-1.674-1.492-2.155-1.689-1.25-.512M37 489.809c0 32.641.27 41.178 1.347 42.651 1.764 2.412 3.162.36 1.664-2.439-.608-1.136-.674-2.021-.152-2.021.511 0 .865-1.125.785-2.499-.079-1.375-.442-2.5-.806-2.5-.363-.001-.51-.789-.326-1.751.184-.962.425-1.75.535-1.75.198 0 .394-2.683 1.001-13.735.173-3.154.012-6.038-.358-6.408-.37-.37-.143-1.311.504-2.091.881-1.061.889-1.597.032-2.126-.858-.531-.84-2.081.073-6.174.67-3.006 1.214-10.978 1.21-17.716-.005-6.737.377-12.25.849-12.25 1.433 0-.367-5.351-2.606-7.75-1.156-1.238-2.472-2.25-2.926-2.25-.454 0-.826 18.364-.826 40.809M288 470c-1.543 1.543-2 3.333-2 7.839 0 6.445 1.676 9.341 9.354 16.161 3.622 3.218 4.432 3.493 10.043 3.419 3.357-.044 8.016-.441 10.353-.882 3.095-.583 4.25-.472 4.25.407 0 .72 1.11 1.09 2.751.918 1.512-.158 3.316.061 4.007.488.769.476 1.496.152 1.875-.835.494-1.289 1.949-1.573 7.243-1.413 3.643.109 6.943.69 7.332 1.29.501.771 1.073.727 1.95-.15.683-.683 2.389-1.189 3.792-1.124 2.38.111 2.35.163-.45.789-2.643.59-2.749.739-.891 1.251 4.914 1.354 14.484-4.693 17.976-11.358 2.214-4.226 1.861-14.354-.585-16.8-1.927-1.927-3.333-2-38.5-2s-36.573.073-38.5 2m-83.296 1.54c-5.718 3.216-5.75 10.662-.063 15 5.961 4.546 12.865 3.127 15.9-3.268 1.825-3.846.915-7.644-2.592-10.818-2.615-2.367-9.783-2.862-13.245-.914m98.058 2.167c1.244.239 3.044.23 4-.02s-.062-.446-2.262-.435c-2.2.011-2.982.216-1.738.455m8.966.015c1.775.221 4.925.224 7 .008 2.074-.217.622-.397-3.228-.402-3.85-.004-5.548.173-3.772.394m12.541-.029c.973.254 2.323.237 3-.037.677-.274-.119-.481-1.769-.461-1.65.02-2.204.244-1.231.498m16.493.014c1.244.239 3.044.23 4-.02s-.062-.446-2.262-.435c-2.2.011-2.982.216-1.738.455m9.502.011c1.52.229 3.77.223 5-.014 1.23-.237-.014-.425-2.764-.418-2.75.008-3.756.202-2.236.432m8.736 1.101c0 1.208 1.897 2.617 2.591 1.924.251-.252-.229-1.027-1.067-1.723-.95-.789-1.524-.865-1.524-.201M297.5 489c.995 1.1 1.969 2 2.163 2 .195 0-.208-.9-.895-2s-1.661-2-2.164-2c-.502 0-.099.9.896 2m35.5 8.368c0 .725 5.039 1.377 5.455.705.224-.362-.912-.759-2.524-.881-1.612-.123-2.931-.044-2.931.176" fill="undefined" fill-rule="evenodd"/></svg>